# xmcd CD database file
#
# Track frame offsets:
#	150
#	13020
#	26859
#	37645
#	49044
#	63442
#	77897
#	88767
#	100303
#	112279
#	126765
#	138320
#	150427
#	163166
#	177725
#	186396
#	199373
#	209294
#	219939
#	231626
#	243682
#	254730
#	267986
#	279745
#
# Disc length: 3877 seconds
#
# Revision: 3
# Processed by: cddbd v1.5.2PL0 Copyright (c) Steve Scherf et al.
# Submitted via: CDex 1.51
#
DISCID=750f2318
DTITLE=Nat King Cole - Vol.07 - These Foolish Things
DYEAR=1900
DGENRE=Jazz
TTITLE0=I Never Had A Chance
TTITLE1=What I'll Do
TTITLE2=This Is My Night To Dream
TTITLE3=Makin' Whoopee
TTITLE4=There I've Said It Again
TTITLE5=I'll String Along With You
TTITLE6=The Trouble With Me Is You
TTITLE7=Too Marvelous For Words
TTITLE8=Three Little Words
TTITLE9=Moonlight In Vermont
TTITLE10=Poor Butterfly
TTITLE11=How High The Moon
TTITLE12=I'll Never Be The Same
TTITLE13=These Foolish Things
TTITLE14=Cole Capers
TTITLE15=Blues In My Shower
TTITLE16=Wanna Be A Friend Of Yours
TTITLE17=Ke Mo Ki
TTITLE18=Three Blind Mice
TTITLE19=Save The Bone For Henry Jones
TTITLE20=My Baby Likes To Be-Bop
TTITLE21=Harmony
TTITLE22=You Cant' Make Money Dreamin'
TTITLE23=There's A Train Out For Dreamland
EXTD=
EXTT0=
EXTT1=
EXTT2=
EXTT3=
EXTT4=
EXTT5=
EXTT6=
EXTT7=
EXTT8=
EXTT9=
EXTT10=
EXTT11=
EXTT12=
EXTT13=
EXTT14=
EXTT15=
EXTT16=
EXTT17=
EXTT18=
EXTT19=
EXTT20=
EXTT21=
EXTT22=
EXTT23=
PLAYORDER=
